<?xml version="1.0" encoding="UTF-8"?>
<svg id="Calque_2" data-name="Calque 2" xmlns="http://www.w3.org/2000/svg" viewBox="0 0 1697.01 565.1">
  <defs>
    <style>
      .cls-1 {
        stroke-width: 0px;
      }
    </style>
  </defs>
  <g id="Calque_6" data-name="Calque 6">
    <g>
      <path class="cls-1" d="m1653.71,330.24c-26.35,18.06-15.06,49.43-22.59,91.25-7.53,41.82-16.94,37.07-67.77,50.38-50.83,13.31-30.12-35.17-17.88-101.7,12.24-66.53,29.18-69.39,36.71-89.35s12.24-27.56,20.71-61.78c6.76-27.3-14.64-39.47-36.48-43.28.84-6.09,1.25-14.51-2.51-16.26-6.03-2.79-6.19,11.68-6.19,11.68l.18,3.5c-2.63-.21-5.22-.31-7.71-.31-.03,0-.06,0-.1,0-2.36-8.76-6.94-21.72-13.2-21.03-9.41,1.04-1.17,20.15-1.17,20.15l1.64,3.19c-2.26,1.87-1.79,4.87-1.53,9-5.79-1.8-21.43-6.13-21.83-.36-.49,7.08,15.19,9.01,15.19,9.01l6.17.32c-.51,2.51-1.44,5.24-3.06,8.21-10.35,19.01-9.41,14.26-6.59,30.42s19.77,5.7,28.24,1.9c8.47-3.8,10.35-19.01,10.35-22.81s-3.76,0-5.65,4.75c-1.88,4.75-3.76,11.41-14.12,13.31s-4.71-8.55,0-33.27,27.3.95,33.88,15.21-43.3,137.82-61.18,176.16c-17.88,38.34-38.59,71.92-80.94,70.97-42.35-.95,0,0,17.88-51.33,17.88-51.33-3.76-39.92-3.76-39.92,0,0-6.59-25.66-6.59-35.17s7.53-28.51,10.35-52.28c2.82-23.76-11.29-41.82-13.18-45.62-1.88-3.8-2.82-117.86-1.88-133.07s14.12-19.01,27.3-31.37c13.18-12.36,25.41,0,36.71,13.31,11.29,13.31,3.76,23.76-1.88,33.27-5.65,9.5-14.12,5.7-15.06.95s2.82-8.55,4.71-12.36,11.29-3.8,11.29-9.5-16,1.9-16,1.9c0,0-16,22.81-5.65,35.17,10.35,12.36,34.82-15.21,36.71-17.43,1.88-2.22-3.76-32-18.82-51.96-15.06-19.96-20.71-7.6-35.77-5.7-15.06,1.9-21.65,13.31-31.06,25.66s-5.65-3.8-16-17.11-29.18-8.55-49.88-13.31-16.94,8.55-26.35,19.01-13.18,22.81-16,37.07c-2.82,14.26,18.82,13.31,41.31,14.45s17.99-17.3,22.69-25.86-5.65-10.46-5.65-10.46c0,0-3.76,0-5.65,6.65-1.88,6.65-8.47,11.41-24.47,16.16s-20.71-8.55-.94-40.87c19.77-32.32,77.18,33.27,75.3,37.07s12.24,179.64,9.41,223.36c-2.82,43.72-58.35,105.5-79.06,129.27-20.71,23.76-11.29-14.26-21.65-33.27-10.35-19.01-38.59-14.26-61.18,18.06-22.59,32.32-28.24,11.41-28.24,11.41,0,0-2.82-6.65-14.12-21.86-11.29-15.21-15.06,1.9-20.71,17.11-5.65,15.21-28.24,8.55-41.41,3.8-13.18-4.75-52.71-21.86-73.41-30.42-20.71-8.55,8.47-21.86,8.47-21.86,0,0,11.29,0,15.06-19.01s-11.29-3.8-11.29-3.8l5.65-28.51s5.65-4.75,22.59-30.42,44.24-24.71,50.83-14.26c6.59,10.46,48.94,6.65,60.24.95,11.29-5.7,47.06-12.36,74.36-18.06s-.94-64.63-6.45-76.99-2.96-26.61-16.13-43.72c-13.18-17.11-10.35,2.85-33.88,29.46s-8.47,21.86,1.88,48.47c10.35,26.61,15.06,1.9,26.35-7.6s2.82-10.46-.94-19.96c-3.76-9.5-2.82,4.75-8.47,17.11-5.65,12.36-7.53-1.9-15.06-14.26-7.53-12.36,2.82-11.41,15.06-30.42,12.24-19.01,23.53,6.65,30.12,51.33,6.59,44.67-16.94,41.82-75.3,58.93-58.35,17.11-43.3-10.46-35.77-17.11,7.53-6.65,5.65-17.11,1.88-57.98-3.76-40.87-4.71-17.11-15.06-23.76s-23.53,4.75-36.71,15.21c-13.18,10.46,15.06,19.01,17.88,21.86s16-1.9,13.18-8.55-5.65,2.85-13.18-1.9c-7.53-4.75,9.41-17.11,17.88-20.91s20.71,95.05-16.94,79.84c-37.65-15.21-54.59,38.97-54.59,38.97,0,0,2.82-13.31,0-44.67-2.82-31.37-8.47-119.76-6.59-133.07s.94-44.67-1.88-69.39c-2.82-24.71,13.18-32.32,40.47-43.72,27.3-11.41,27.3,17.11,34.82,32.32s9.41,35.17-2.82,61.78c-12.24,26.61-15.06,14.26-22.59,18.06s-15.06-33.27-16-49.43c-.94-16.16,2.82-19.01,5.65-22.81s8.47,7.6,16,14.26c7.53,6.65,5.65,7.6,7.53,14.26s-1.88,5.7-7.53,10.46c-5.65,4.75,2.82,5.7,7.53,5.7s6.59-11.41,8.47-17.11-10.35-30.42-30.12-35.17-16,13.31-18.51,17.11c-2.51,3.8-2.2,47.52,19.45,69.39s26.35-1.9,43.3-19.96c11.82-12.6,6.23-45.09,1.77-63.59,3.39,2.2,6.76,2.86,8.35.31,4.78-7.69,3.44-24.61-13.39-19.06-3.65-11.78-15.38-38.44-45.67-31.73-38.59,8.55-30.12,10.46-41.41,25.66-11.29,15.21-7.53,121.66-11.29,112.16s-23.53-16.16-48-6.65c-24.47,9.5,0,32.32,0,32.32,0,0-4.23-1.87-18.82,2.85-11.05,3.58-10.87,9.79-23.53,31.37-13.3,22.68-20.91,50.56,7.53,72.24,24.56,18.71,48.6-35.85,37.65-51.33-4.71-6.65-13.7-7.31-20.71-3.8-2.7,1.35,10.35,3.8,15.06,10.46,5.39,7.62,1.88,34.22-18.82,38.02-12.18,2.24-18.09-17.03-18.82-18.06-9.41-13.31,6.59-59.88,18.82-68.43,4.51-3.15,41.43-18.45,52.71,41.82.99,5.28,7.53,62.73-23.53,131.17s-48.94,50.38-51.77,42.77-59.3-13.31-86.59,11.41c-11.29-25.66-80-14.26-80-14.26,0,0-37.65,14.26-13.18-2.85,24.47-17.11,27.3-70.34,33.88-81.74,6.59-11.41,96.94-54.18,122.16-62.1,25.21-7.92,3.96-29.15-4.51-48.16-8.47-19.01-5.65-15.21-16-22.81-10.35-7.6-37.65,1.9-49.88,11.41-12.24,9.5,0,30.42,9.41,45.62s24.47-10.46,25.94-12.19,3.24-10.62-1.46-18.22-5.65,3.8-5.65,18.22-16.94-.16-22.59-15.37c-5.65-15.21,5.65-11.41,21.65-20.91,16-9.5,17.88,4.75,37.65,23.76,19.77,19.01-17.88,39.92-54.59,57.03s-78.12,53.23-66.83,19.96c11.29-33.27,1.88-118.81-3.76-151.13-5.65-32.32-3.76-26.61-.94-44.67s15.06-12.36,33.88-35.17c18.82-22.81,28.24-22.81,38.59-19.96s9.41,3.8,9.41,12.36-6.59,16.16-15.06,30.42c-8.47,14.26-12.24,3.8-16.94-4.75s6.59-12.36,9.41-16.16-.94,9.5,2.51,12.36c3.45,2.85,5.96-9.5,5.02-14.26s-4.71-10.46-18.82,3.8c-14.12,14.26-2.82,31.37,11.29,35.17s22.59-30.42,29.18-45.62c6.59-15.21,4.71-18.06-11.29-27.56-11.82-7.02-37.48,11.87-51.24,23.39-2.88-6.84-13.55-30.88-18.41-24.34-5.65,7.6,5.96,26.11,5.96,26.11l4.05,5.63c-.27.26-.48.46-.6.58-2.82,2.85-23.53,32.32-32,38.97-8.47,6.65-13.18-15.21-33.88-17.11s-24.47,19.96-42.35,36.12c-17.85,16.13-20.7,21.85-16.96,54.97-8.12,3.77-21.32,10.95-18.4,16.68,3.73,7.34,17.64-1.01,20.42-2.77,1.98,9.57,4.78,12.42,11.15,15.47-2.21,4.51-4.49,10.38-3.27,13.62,2.17,5.75,6.92-6.26,6.92-6.26l1.71-4.99c4.13,1.77,9.31,4.02,15.9,7.58-2.2,8.19-5.17,22.6.8,23.99,8.39,1.96,10.41-17.18,10.41-17.18l.06-1.62c16.84,4.97,10.58-16.12,21.14-35.81,12.24-22.81,6.59-16.16,4.71-35.17s-9.41-7.6-20.71.95c-11.29,8.55-7.53,3.8-6.59,9.5s10.35-1.9,17.88-3.8,4.71,8.55-8.47,35.17c-13.18,26.61-31.06-.95-40.47-36.12-9.41-35.17,17.88-29.46,33.88-52.28s27.3-2.85,41.41,19.96c14.12,22.81,10.35,131.17-16,217.66-26.35,86.49-42.35,55.13-46.12,56.08s-36.71,7.6-41.41-17.11c-4.71-24.71-51.77,17.11-52.71,19.01s-29.18,41.82-54.59,7.6c-25.41-34.22.94-25.66.94-56.08s-13.18-47.52-16-50.38-1.88-7.6,0-30.42-6.59-47.52-11.29-58.93c-4.71-11.41,3.76-12.36,7.53-27.56s16.94-10.46,32-19.96c15.06-9.5,26.35,16.16,35.77,37.07,9.41,20.91-5.65,20.91-16.73,32.48-11.09,11.57-30.33,9.34-41.62-6.82-11.29-16.16,5.65-24.71,13.18-22.81s0-6.65-12.24-9.5c-12.24-2.85-10.35,11.41-8.47,29.46s0,14.26,25.41,23.76,25.41-4.75,46.12-19.01c20.71-14.26-5.65-36.12-10.35-52.28s-14.12-23.76-42.35-23.76-12.24-.95-9.41-9.5,14.12-30.42,11.29-45.62,1.88-22.81,11.29-40.87c9.41-18.06,1.88-7.6,1.88-22.81s-9.41-13.31-13.18,4.75c-3.76,18.06-6.59,38.02-22.59,17.11-16-20.91-36.71-13.31-41.41-4.75s-5.65,19.01,4.18,30.42c9.83,11.41,17.46,5.7,28.03,0s1.67-6.65-2.09-8.55-3.76,5.7-15.06,3.8.94-11.41,7.53-18.06,14.12,9.5,29.7,22.81c15.58,13.31-7.11,48.47-13.7,60.83-6.59,12.36-38.59,38.97-23.53,102.65,15.06,63.68-17.88,85.54-41.41,108.36-23.53,22.81-16,34.22,0,26.61s9.41,9.5,9.41,9.5l-5.65,15.21s-36.71,12.36-50.83,11.41c-14.12-.95-34.82,37.07-37.65,23.76-2.82-13.31-27.3-31.37-53.65-25.66s-16,30.42-57.41,27.56c-41.41-2.85-.94-15.21,16.94-39.92,17.88-24.71,26.35-14.26,52.71-33.27s34.82-86.49,39.53-102.65c4.71-16.16-8.47-52.28-7.53-81.74s32.94-71.29,44.24-74.14c11.29-2.85,23.53,22.81,30.12,34.22,6.59,11.41-.94,18.06-14.12,37.07-13.18,19.01-25.41-3.8-29.18-8.55s-2.82-11.41-2.82-15.21,15.06-3.8,20.71-.95c5.65,2.85-4.71,10.46.94,9.5,5.65-.95,3.76-8.55.94-15.21s-13.18-3.8-24.47-.95c-11.29,2.85-7.53,20.91-4.71,36.12s20.71,13.31,38.59,13.31,20.71-26.61,26.35-37.07-10.35-27.56-24.47-50.38c-14.12-22.81-30.12-9.5-33.88-9.5s-18.82,15.21-26.35,34.22-8.47,21.86-13.18,10.46-2.82-26.61-27.3-35.17-52.71,30.42-64.94,48.47c-12.24,18.06-12.24,32.32-10.35,50.38s0,19.01,7.53,27.56,25.41,1.9,37.65-2.85c12.24-4.75,6.59-9.5,2.82-19.01s-5.65,2.85-8.47,7.6-10.35,9.5-16,10.46-9.41-9.5-14.12-30.42,32-59.88,48.94-75.09c16.94-15.21,29.18,45.62,39.53,113.11,10.35,67.48-47.06,114.06-96,144.47-48.94,30.42-28.24,34.22-31.06,37.07s-23.53,33.27-44.34,13.31c-20.81-19.96-47.9,0-47.9,0,0,0-21.65-76.04-9.41-68.43s70.59-36.12,77.18-42.77,15.06-17.11,15.06-39.92-18.82-29.46-28.24-31.37-23.53,2.85-43.3,22.81,5.65,27.56,12.24,29.46,17.88,0,22.59-5.7-8.47-5.7-14.12-3.8c-5.65,1.9-11.29-5.7-9.41-14.26s37.65-23.76,46.12-2.85c8.47,20.91-48,67.48-72.47,74.14-24.47,6.65-35.77-112.16-35.77-116.91s0-112.16,2.82-129.16c2.82-17,22.59-34.32,29.18-41.93s46.12-10.46,62.12-2.85,19.77,25.66,26.35,49.43-13.18,55.13-27.3,68.43-13.18,11.41-22.59,14.26c-9.41,2.85-18.82-16.16-20.71-27.56s2.82-16.16,14.12-21.86,19.77,1.9,21.65,6.65-6.59,6.65-8.47,13.31,6.59,5.7,12.24,1.9c5.65-3.8,2.82-15.21.94-26.61s-20.71-9.5-39.53-1.9-17.88,37.07,2.82,62.73c20.71,25.66,52.71-19.01,65.88-38.02,13.18-19.01,13.18-63.68-4.71-91.25-.84-1.3-1.71-2.49-2.59-3.64,6.38-6.56,20.48-21.8,12.17-20.17-7.3,1.44-14.84,8.73-18.8,13.1-4.51-3.83-9.48-6.34-15.02-7.94,2.31-10.7,8.78-44.45-3.23-36.24-12.13,8.3-14.74,28.16-15.24,33.82-6.64-.15-13.92.21-21.92.69-.03-12.42-.71-55.42-8.79-42.36-7.84,12.66-6.68,35.86-6.08,43.27-2.91.17-5.9.32-8.98.45-27.38,1.18-39.97,49.69-44.03,114.87-7.79-2.6-18.01-4.94-19.54,0-2.51,8.14,15.85,11.83,15.85,11.83l3.03.39c-1.68,37.2-.86,78.95,1.4,120.02,6.59,119.76-16.94,62.73-76.24,43.72,0,0-62.12,194.85-65.88,202.45s1672.53,7.6,1672.53,13.31,24.47-238.57,24.47-238.57c0,0-16.94-14.26-43.3,3.8Z"/>
      <path class="cls-1" d="m630.93,12.23c.63-7.06-5.96-18.47-15.37-8.01-6.61,7.34,14.75,15.08,15.37,8.01Z"/>
      <path class="cls-1" d="m646.89,60.37c-4.72,5.08,10.54,10.43,10.99,5.54.45-4.89-4.26-12.78-10.99-5.54Z"/>
      <path class="cls-1" d="m655.05,32.29c.52-5.78-4.93-15.11-12.72-6.56-5.47,6.01,12.2,12.34,12.72,6.56Z"/>
      <path class="cls-1" d="m659.53,292.37c-9.4,10.88,20.96,22.35,21.85,11.88.89-10.47-8.47-27.37-21.85-11.88Z"/>
      <path class="cls-1" d="m693.65,342.5c.45-4.89-4.26-12.78-10.99-5.54-4.72,5.08,10.54,10.43,10.99,5.54Z"/>
      <path class="cls-1" d="m1234.82,107.75c.79-9.83-7.46-25.71-19.25-11.16-8.28,10.22,18.47,20.99,19.25,11.16Z"/>
      <path class="cls-1" d="m1174.53,427.24c1.64-16.73-15.54-43.73-40.07-18.98-17.23,17.39,38.43,35.7,40.07,18.98Z"/>
      <path class="cls-1" d="m1143.05,364.91c.45-4.89-4.26-12.78-10.99-5.54-4.72,5.08,10.54,10.43,10.99,5.54Z"/>
      <path class="cls-1" d="m1252.3,193.47c13.31,4.05,21.21-11.95,3.72-14.15-15.27-1.92-17.03,10.1-3.72,14.15Z"/>
      <path class="cls-1" d="m879.17,36.39c10.81,3.99,17.24-11.75,3.02-13.91-12.4-1.89-13.84,9.93-3.02,13.91Z"/>
      <path class="cls-1" d="m1230.87,171.71c-7.65-1.89-8.53,9.93-1.86,13.91,6.67,3.99,10.63-11.75,1.86-13.91Z"/>
      <path class="cls-1" d="m1402.11,34.91c-9.2-12.45-15.63,1.13-15.02,9.54.61,8.41,21.48-.8,15.02-9.54Z"/>
      <path class="cls-1" d="m1373.06,33.82c6.74,2.45,10.74-7.23,1.88-8.57-7.73-1.16-8.62,6.11-1.88,8.57Z"/>
      <path class="cls-1" d="m1506.95,170.1c-10.29-1.55-11.48,8.14-2.51,11.41,8.97,3.27,14.3-9.63,2.51-11.41Z"/>
      <path class="cls-1" d="m288.87,388.2c10.16,1.09,6.38-20.94-.46-17.3-6.84,3.64-14.01,15.75.46,17.3Z"/>
    </g>
  </g>
</svg>