<?xml version="1.0" encoding="UTF-8"?>
<svg id="Calque_2" data-name="Calque 2" xmlns="http://www.w3.org/2000/svg" viewBox="0 0 120 90">
  <defs>
    <style>
      .cls-1 {
        fill: #d84793;
        stroke-width: 0px;
      }
    </style>
  </defs>
  <g id="Calque_5" data-name="Calque 5">
    <g>
      <path class="cls-1" d="m16.43,1.75C-5.16-6.75-3.51,18.2,10.07,23.67c13.58,5.46,30.03-12.6,6.35-21.92Z"/>
      <path class="cls-1" d="m113.7,79.76c-10.88-4.52-9.24,6.71-2.39,9.6,6.85,2.89,14.33-4.65,2.39-9.6Z"/>
      <path class="cls-1" d="m84.66,62.24c-19.84-8.39-16.32,11.17-3.82,16.54,12.49,5.37,25.58-7.34,3.82-16.54Z"/>
      <path class="cls-1" d="m96.64,34.17c-24.61-10.33-20.52,14.41-5.02,21.02,15.49,6.61,32.01-9.69,5.02-21.02Z"/>
      <path class="cls-1" d="m52.26,36.85c-17.48-7.95-12.43,6.02-1.42,11.09,11.02,5.07,20.59-2.37,1.42-11.09Z"/>
      <path class="cls-1" d="m52.15,14.32c-20.53-9.12-15.37,8.58-2.43,14.4,12.94,5.82,24.95-4.39,2.43-14.4Z"/>
    </g>
  </g>
</svg>