<?xml version="1.0" encoding="UTF-8"?>
<svg id="Calque_2" data-name="Calque 2" xmlns="http://www.w3.org/2000/svg" viewBox="0 0 103 54.61">
  <defs>
    <style>
      .cls-1 {
        fill: #f6b1e0;
        stroke-width: 0px;
      }
    </style>
  </defs>
  <g id="Calque_5" data-name="Calque 5">
    <g>
      <path class="cls-1" d="m8.9,11.33c18.07-3.51,13.88,23.98,3.47,25.88S-7.58,14.54,8.9,11.33Z"/>
      <path class="cls-1" d="m96.68,37.45c9.2-1.51,7.06,10.3,1.77,11.12s-10.15-9.74-1.77-11.12Z"/>
      <path class="cls-1" d="m72.44,35.54c16.83-2.58,12.92,17.6,3.23,18.99s-18.57-16.64-3.23-18.99Z"/>
      <path class="cls-1" d="m70.41.29c20.84-3.29,16,22.44,4,24.22S51.41,3.29,70.41.29Z"/>
      <path class="cls-1" d="m43.4,27.46c15.03-1.64,11.54,11.22,2.89,12.1s-16.59-10.61-2.89-12.1Z"/>
      <path class="cls-1" d="m35.66,4.5c17.58-2.18,13.5,14.86,3.37,16.04s-19.4-14.05-3.37-16.04Z"/>
    </g>
  </g>
</svg>