<?xml version="1.0" encoding="UTF-8"?>
<svg id="Calque_2" data-name="Calque 2" xmlns="http://www.w3.org/2000/svg" viewBox="0 0 130.19 60.89">
  <defs>
    <style>
      .cls-1 {
        fill: #ffb39b;
        stroke-width: 0px;
      }
    </style>
  </defs>
  <g id="Calque_5" data-name="Calque 5">
    <g>
      <path class="cls-1" d="m50.01,38.96c-10.58,3.46-9.6,26.46,7.23,21.13,18.46-5.84,3.35-24.59-7.23-21.13Z"/>
      <path class="cls-1" d="m108.19,9.49c9.28-3.18,2.47-11.08-2.85-9.21-5.32,1.87-5.61,12.11,2.85,9.21Z"/>
      <path class="cls-1" d="m113.64,19.39c-12.03,4.3-13.07,26.8,6.06,20.14,20.97-7.3,5.97-24.43-6.06-20.14Z"/>
      <path class="cls-1" d="m81.03,21.26c-8.52,3.4-11.34,15.79,2.19,10.48,14.84-5.82,6.33-13.87-2.19-10.48Z"/>
      <path class="cls-1" d="m81.9,39c-10.02,3.87-12.58,19.7,3.33,13.68,17.45-6.61,6.69-17.54-3.33-13.68Z"/>
      <path class="cls-1" d="m19.72,29.68c-13.04,8.16-4.43,19.13,5.48,15.77,13.01-4.42,7.56-23.93-5.48-15.77Z"/>
      <path class="cls-1" d="m44.79,7.6c-14.55,9.28-4.27,22.75,6.91,19.1,14.67-4.8,7.64-28.38-6.91-19.1Z"/>
      <path class="cls-1" d="m8.02,11.14c-14.42,8.5-7,16.81,3.6,12.77,13.92-5.31,10.82-21.27-3.6-12.77Z"/>
    </g>
  </g>
</svg>