<?xml version="1.0" encoding="UTF-8"?>
<svg id="Calque_2" data-name="Calque 2" xmlns="http://www.w3.org/2000/svg" viewBox="0 0 120.88 44.48">
  <defs>
    <style>
      .cls-1 {
        fill: #c095f0;
        stroke-width: 0px;
      }
    </style>
  </defs>
  <g id="Calque_5" data-name="Calque 5">
    <g>
      <path class="cls-1" d="m8.49,38.95c-18.21-1.66-3.18-22.18,8.34-21.23,11.52.95,11.63,23.05-8.34,21.23Z"/>
      <path class="cls-1" d="m112.83,12.7c-9.31-.64-1.99-9.5,3.9-9.14,5.89.36,6.31,9.84-3.9,9.14Z"/>
      <path class="cls-1" d="m84.91,15.64c-17.06-1.03-3.89-16.2,6.9-15.62,10.79.58,11.81,16.76-6.9,15.62Z"/>
      <path class="cls-1" d="m76.62,44.4c-21.11-1.35-4.69-20.67,8.67-19.92,13.35.76,14.49,21.4-8.67,19.92Z"/>
      <path class="cls-1" d="m50.5,23.87c-15.34-.43-4.36-10.23,5.34-10,9.7.23,11.49,10.48-5.34,10Z"/>
      <path class="cls-1" d="m37.78,42.97c-17.9-.7-4.75-13.61,6.56-13.23,11.32.38,13.07,14-6.56,13.23Z"/>
    </g>
  </g>
</svg>