<?xml version="1.0" encoding="UTF-8"?>
<svg id="Calque_2" data-name="Calque 2" xmlns="http://www.w3.org/2000/svg" viewBox="0 0 134.83 63.79">
  <defs>
    <style>
      .cls-1 {
        fill: #f1c062;
        stroke-width: 0px;
      }
    </style>
  </defs>
  <g id="Calque_5" data-name="Calque 5">
    <g>
      <path class="cls-1" d="m38.56,24.91c11.19-.72,17.18-22.16-2.26-20.73-17.73,1.3-8.93,21.45,2.26,20.73Z"/>
      <path class="cls-1" d="m128.34,31.4c-9.01.46-4.42,9.18,1.26,8.93,5.69-.25,8.61-9.44-1.26-8.93Z"/>
      <path class="cls-1" d="m102.63,28.08c-16.47.71-8.01,15.65,2.39,15.27,10.4-.38,15.68-16.05-2.39-15.27Z"/>
      <path class="cls-1" d="m102.43.04c-20.4.95-9.96,19.97,2.92,19.46,12.88-.51,19.46-20.51-2.92-19.46Z"/>
      <path class="cls-1" d="m72.15,19.51c-14.68.16-6.87,9.85,2.4,9.79,9.27-.06,13.7-9.97-2.4-9.79Z"/>
      <path class="cls-1" d="m67.88,13.72c10.85-.18,16.14-13.35-2.7-12.94-17.18.37-8.14,13.12,2.7,12.94Z"/>
      <path class="cls-1" d="m13,28c-10.54.57-13.83,13.03,1.6,15.5,15.44,2.47,12.23-16.24-1.6-15.5Z"/>
      <path class="cls-1" d="m45.28,34.88c-11.82.76-15.6,15.96,1.69,18.86,17.3,2.9,13.83-19.86-1.69-18.86Z"/>
      <path class="cls-1" d="m9.58,51.3c-11.45.23-14.78,9.98,2.07,12.26,16.85,2.27,12.97-12.55-2.07-12.26Z"/>
    </g>
  </g>
</svg>